<svg xmlns="http://www.w3.org/2000/svg" xmlns:xlink="http://www.w3.org/1999/xlink" viewBox="0 0 402.04 490.12"><defs><style>.cls-1{isolation:isolate;}.cls-2{opacity:0.18;fill:url(#Безымянный_градиент_154);}.cls-3,.cls-7{opacity:0.1;}.cls-3{fill:url(#Безымянный_градиент_153);}.cls-4,.cls-8{mix-blend-mode:multiply;}.cls-4{fill:url(#Безымянный_градиент_14);}.cls-5,.cls-9{fill:#a333bf;stroke-miterlimit:10;}.cls-5{stroke:#ee2cf4;stroke-width:0.5px;}.cls-6{opacity:0.2;fill:url(#Безымянный_градиент_33);}.cls-7{fill:#fff;}.cls-8{opacity:0.5;fill:url(#Безымянный_градиент_143);}.cls-9{stroke:#27d8eb;stroke-width:0.25px;}</style><linearGradient id="Безымянный_градиент_154" x1="13381.19" y1="-1637.31" x2="13639.67" y2="-1926.21" gradientTransform="matrix(-0.85, 0.16, -0.16, 0.82, 11469.84, -605.84)" gradientUnits="userSpaceOnUse"><stop offset="0.01" stop-color="#fff"/><stop offset="1" stop-color="#a333bf" stop-opacity="0"/></linearGradient><linearGradient id="Безымянный_градиент_153" x1="21533.34" y1="-10034.85" x2="22034.04" y2="-10594.45" gradientTransform="matrix(-0.66, 0.36, -0.36, 0.61, 10780.68, -1351.53)" xlink:href="#Безымянный_градиент_154"/><radialGradient id="Безымянный_градиент_14" cx="11682.68" cy="464.67" r="19.49" gradientTransform="matrix(-0.97, -0.23, -0.23, 0.97, 11820.78, 2712.97)" gradientUnits="userSpaceOnUse"><stop offset="0" stop-color="#150619"/><stop offset="0.01" stop-color="#150619" stop-opacity="0.95"/><stop offset="0.23" stop-color="#150619" stop-opacity="0.41"/><stop offset="0.5" stop-color="#150619" stop-opacity="0.09"/><stop offset="1" stop-color="#150619" stop-opacity="0"/></radialGradient><radialGradient id="Безымянный_градиент_33" cx="11680.27" cy="451.16" r="38.96" gradientTransform="matrix(-1, 0, 0, 1, 12029.75, 0)" gradientUnits="userSpaceOnUse"><stop offset="0.01" stop-color="#27d8eb"/><stop offset="0.04" stop-color="#27d8eb" stop-opacity="0.84"/><stop offset="0.08" stop-color="#27d8eb" stop-opacity="0.67"/><stop offset="0.13" stop-color="#27d8eb" stop-opacity="0.51"/><stop offset="0.19" stop-color="#27d8eb" stop-opacity="0.37"/><stop offset="0.25" stop-color="#27d8eb" stop-opacity="0.25"/><stop offset="0.31" stop-color="#27d8eb" stop-opacity="0.16"/><stop offset="0.39" stop-color="#27d8eb" stop-opacity="0.09"/><stop offset="0.49" stop-color="#27d8eb" stop-opacity="0.04"/><stop offset="0.62" stop-color="#27d8eb" stop-opacity="0.01"/><stop offset="1" stop-color="#27d8eb" stop-opacity="0"/></radialGradient><radialGradient id="Безымянный_градиент_143" cx="11637.83" cy="250.55" r="10.13" gradientTransform="matrix(-0.71, -0.71, -0.71, 0.71, 8798.27, 8302.57)" gradientUnits="userSpaceOnUse"><stop offset="0"/><stop offset="0.14" stop-opacity="0.59"/><stop offset="1" stop-opacity="0"/></radialGradient></defs><g class="cls-1"><g id="Слой_2" data-name="Слой 2"><g id="Слой_1-2" data-name="Слой 1"><path class="cls-2" d="M372.11,222.84h0c-1.14,1.06-2.64,1.29-3.36.52L166.28,4.28c-.71-.77-.36-2.25.78-3.31h0c1.14-1,2.65-1.29,3.36-.51L372.89,219.54C373.6,220.31,373.25,221.79,372.11,222.84Z"/><path class="cls-3" d="M154.36,411.66h0c-.8.75-1.61,1.17-1.81,1L0,236.52c-.2-.22.29-1,1.1-1.73h0c.8-.74,1.61-1.17,1.81-.95l152.5,176.09C155.65,410.15,155.17,410.92,154.36,411.66Z"/><circle class="cls-4" cx="347.07" cy="464.67" r="19.49" transform="translate(-98.01 92.81) rotate(-13.36)"/><circle class="cls-5" cx="347.07" cy="457.54" r="10.63" transform="translate(-202.53 290.99) rotate(-35.96)"/><circle class="cls-6" cx="349.47" cy="451.16" r="38.96"/><path class="cls-7" d="M117.08,479.8a5.31,5.31,0,1,1-5.31-5.31A5.31,5.31,0,0,1,117.08,479.8Z"/><circle class="cls-8" cx="391.92" cy="250.55" r="10.13" transform="translate(-62.38 350.51) rotate(-45)"/><circle class="cls-9" cx="391.92" cy="246.85" r="5.52"/><path class="cls-7" d="M214.29,155.82a3.16,3.16,0,1,1-3.15-3.16A3.15,3.15,0,0,1,214.29,155.82Z"/></g></g></g></svg>