<svg xmlns="http://www.w3.org/2000/svg" xmlns:xlink="http://www.w3.org/1999/xlink" viewBox="0 0 205 38.31"><defs><style>.cls-1{fill:#fff;}.cls-2{fill:url(#Безымянный_градиент_118);}.cls-3{fill:url(#Безымянный_градиент_118-2);}.cls-4{fill:url(#Безымянный_градиент_118-3);}.cls-5{fill:url(#Безымянный_градиент_118-4);}.cls-6{fill:url(#Безымянный_градиент_118-5);}.cls-7{fill:url(#Безымянный_градиент_118-6);}.cls-8{fill:url(#Безымянный_градиент_118-7);}.cls-9{fill:url(#Безымянный_градиент_118-8);}</style><linearGradient id="Безымянный_градиент_118" x1="74.1" y1="37.69" x2="74.59" y2="37.69" gradientUnits="userSpaceOnUse"><stop offset="0" stop-color="#24daed"/><stop offset="0.5" stop-color="#b161f2"/><stop offset="1" stop-color="#ee2cf4"/></linearGradient><linearGradient id="Безымянный_градиент_118-2" x1="62.28" y1="26.31" x2="105.85" y2="26.31" xlink:href="#Безымянный_градиент_118"/><linearGradient id="Безымянный_градиент_118-3" x1="62.28" y1="20.62" x2="105.85" y2="20.62" xlink:href="#Безымянный_градиент_118"/><linearGradient id="Безымянный_градиент_118-4" x1="62.28" y1="20.62" x2="105.85" y2="20.62" xlink:href="#Безымянный_градиент_118"/><linearGradient id="Безымянный_градиент_118-5" x1="62.28" y1="26.31" x2="105.85" y2="26.31" xlink:href="#Безымянный_градиент_118"/><linearGradient id="Безымянный_градиент_118-6" x1="62.28" y1="32" x2="105.85" y2="32" xlink:href="#Безымянный_градиент_118"/><linearGradient id="Безымянный_градиент_118-7" x1="62.28" y1="33.34" x2="105.85" y2="33.34" xlink:href="#Безымянный_градиент_118"/><linearGradient id="Безымянный_градиент_118-8" x1="62.28" y1="36.34" x2="105.85" y2="36.34" xlink:href="#Безымянный_градиент_118"/></defs><g id="Слой_2" data-name="Слой 2"><g id="Слой_1-2" data-name="Слой 1"><line class="cls-1" x1="93.02" y1="37.69" x2="95.53" y2="37.69"/><polygon class="cls-1" points="106.19 37.69 106.17 37.65 106.15 37.69 106.19 37.69"/><polygon class="cls-1" points="103.64 37.69 103.67 37.69 103.66 37.65 103.64 37.69"/><polygon class="cls-1" points="71.83 14.93 71.83 14.93 71.83 14.93 71.83 14.93"/><polygon class="cls-2" points="74.34 37.69 74.34 37.69 74.34 37.69 74.34 37.69"/><polygon class="cls-1" points="106.15 14.93 103.64 14.93 100.16 22.38 101.41 25.08 106.15 14.93"/><polygon class="cls-1" points="77.84 30.19 76.58 27.5 73.64 33.81 74.9 36.5 77.84 30.19"/><polygon class="cls-1" points="63.73 14.93 61.22 14.93 71.83 37.69 74.34 37.69 74.34 37.69 63.73 14.93"/><polygon class="cls-1" points="83.15 18.81 81.89 16.11 78.95 22.43 80.2 25.12 83.15 18.81"/><polygon class="cls-1" points="99.05 30.15 97.79 27.45 94.85 33.77 96.11 36.46 99.05 30.15"/><polygon class="cls-1" points="84.96 14.93 82.44 14.93 93.06 37.69 95.57 37.69 84.96 14.93"/><polygon class="cls-3" points="62.47 35 53.11 14.93 50.6 14.93 61.22 37.69 63.73 37.69 67.22 30.19 65.97 27.5 62.47 35"/><polygon class="cls-4" points="68.33 22.43 69.59 25.12 72.53 18.81 71.28 16.11 68.33 22.43"/><polygon class="cls-5" points="89.56 22.43 90.82 25.12 93.76 18.81 92.5 16.11 89.56 22.43"/><polygon class="cls-6" points="114.25 14.93 104.91 34.95 95.57 14.93 93.06 14.93 103.66 37.65 103.67 37.69 106.15 37.69 106.17 37.65 116.76 14.93 114.25 14.93"/><polygon class="cls-7" points="88.45 30.19 87.2 27.5 84.25 33.81 85.51 36.5 88.45 30.19"/><polygon class="cls-8" points="78.39 29 82.44 37.69 78.39 29 78.39 29"/><polygon class="cls-9" points="83.7 35 84.96 37.69 83.7 35 83.7 35"/><polygon class="cls-6" points="83.7 35 83.7 35 74.34 14.93 74.34 14.93 71.83 14.93 71.83 14.93 82.44 37.69 84.92 37.69 84.96 37.69 83.7 35"/><path class="cls-1" d="M18.44,37.72V24.49a8.14,8.14,0,0,0-2.34-5.78,7.51,7.51,0,0,0-5.64-2.46A8.2,8.2,0,0,0,4.6,18.71a7.86,7.86,0,0,0-2.53,5.78V37.72H0V14.92H2.07v3.81c1.78-2.89,4.59-4.35,8.39-4.35a9.66,9.66,0,0,1,7.16,2.95,9.86,9.86,0,0,1,2.89,7.16V37.72Z"/><path class="cls-1" d="M36.93,38.31a11.45,11.45,0,0,1-8.38-3.61A11.68,11.68,0,0,1,25,26.27a11.38,11.38,0,0,1,3.55-8.33,12,12,0,0,1,8.74-3.51,11.73,11.73,0,0,1,9,4.14l.15.18L30.85,34.08a9.73,9.73,0,0,0,5.83,2.36,10.24,10.24,0,0,0,5.2-1.33,11.74,11.74,0,0,0,3.82-3.57l.44-.66V34.3l-.06.07a11.44,11.44,0,0,1-8.71,3.94Zm-.08-22a9.46,9.46,0,0,0-6.82,3,9.47,9.47,0,0,0-3,6.84,9.91,9.91,0,0,0,2.39,6.58l14.05-14A10.15,10.15,0,0,0,36.85,16.3Z"/><path class="cls-1" d="M121.34,37.67V14.92h2.07V37.67Zm1-27.71c-1.39,0-1.68-.86-1.68-1.59s.29-1.58,1.68-1.58,1.68.86,1.68,1.58S123.76,10,122.37,10Z"/><path class="cls-1" d="M140.32,38.21a11.65,11.65,0,0,1-8.53-3.52,11.53,11.53,0,0,1-3.51-8.42,12,12,0,0,1,12-11.94,12.09,12.09,0,0,1,6,1.66,10.52,10.52,0,0,1,3.82,3.63V0h2.08V37.67h-2.08V32.9a11.31,11.31,0,0,1-3.94,3.67A11.9,11.9,0,0,1,140.32,38.21Zm0-22a9.46,9.46,0,0,0-7,3,10.06,10.06,0,0,0,0,14.16,9.47,9.47,0,0,0,7,3,10.14,10.14,0,0,0,10-10,9.84,9.84,0,0,0-3-7.09A9.6,9.6,0,0,0,140.27,16.2Z"/><path class="cls-1" d="M168.67,38.26a11.46,11.46,0,0,1-8.38-3.62,11.69,11.69,0,0,1-3.56-8.42,11.41,11.41,0,0,1,3.54-8.33A12,12,0,0,1,169,14.38,11.69,11.69,0,0,1,178,18.52l.16.17L162.59,34a9.71,9.71,0,0,0,5.83,2.35,10.17,10.17,0,0,0,5.21-1.33,11.48,11.48,0,0,0,3.81-3.56l.45-.67v3.42l-.07.07a11.38,11.38,0,0,1-8.7,3.95Zm-.07-22a9.4,9.4,0,0,0-6.82,3,9.43,9.43,0,0,0-3,6.84,9.94,9.94,0,0,0,2.4,6.58L175.25,18.7A10.13,10.13,0,0,0,168.6,16.25Z"/><path class="cls-1" d="M193.06,38.21a11.69,11.69,0,0,1-8.5-3.51,11.81,11.81,0,0,1,0-16.86,11.69,11.69,0,0,1,8.5-3.51A12.17,12.17,0,0,1,199.25,16a9.75,9.75,0,0,1,3.68,3.61V14.87H205v22.8h-2.07V32.82a10.75,10.75,0,0,1-3.8,3.72A11.81,11.81,0,0,1,193.06,38.21Zm.05-22a9.57,9.57,0,0,0-7,3,9.81,9.81,0,0,0-3,7.09,10.16,10.16,0,0,0,10,10,9.47,9.47,0,0,0,7-3,10.07,10.07,0,0,0,0-14.16A9.49,9.49,0,0,0,193.11,16.2Z"/></g></g></svg>