<svg xmlns="http://www.w3.org/2000/svg" viewBox="0 0 815.59 698.75"><defs><style>.cls-1{fill:#fff;opacity:0.03;}</style></defs><g id="Слой_2" data-name="Слой 2"><g id="Слой_1-2" data-name="Слой 1"><path class="cls-1" d="M475.67,558.84c-40.3-22.36-92.86-24.47-137.3-22.34-44.77,2.15-89.62,8.92-134.42,13-38.43,3.45-77.95,3.72-114.65-8.16C25.58,520.66-10.14,466.9,2.54,400.41,16.09,329.33,72.79,265.63,142.77,245.6c30.59-8.76,62.19-3.35,90.31-19.44,24.21-13.85,41.82-38.67,47.43-65.95,5.82-28.27-5.55-56.73,0-84.95C290.79,22.45,349.72.45,397.8,0c62.58-.57,126.74,27.92,172.66,69.34,26.33,23.75,39.09,54,60.14,81.56a266.38,266.38,0,0,0,81.25,70.73c21.34,12,44.4,21,64.36,35.12s37.12,34.93,39.14,59.31c4.5,54.3-56.31,88.64-64.36,140.22-7.11,45.56,22.24,84.36,30.16,127.5,9.66,52.6-25.06,101.76-77.6,111.9-48.66,9.38-106.71-2.81-144-36.6-19.88-18-29.27-43.67-44.39-65.21A116.4,116.4,0,0,0,475.67,558.84Z"/></g></g></svg>